HIERARCHY
ROOT Hips
{
	OFFSET 0.00000 0.00000 0.00000
	CHANNELS 6 Xposition Yposition Zposition Zrotation Yrotation Xrotation 
	JOINT LHipJoint
	{
		OFFSET 0 0 0
		CHANNELS 3 Zrotation Yrotation Xrotation
		JOINT LeftHip
		{
			OFFSET 1.77779 -1.88989 0.48267
			CHANNELS 3 Zrotation Yrotation Xrotation
			JOINT LeftKnee
			{
				OFFSET 2.53442 -6.96327 0.00000
				CHANNELS 3 Zrotation Yrotation Xrotation
				JOINT LeftAnkle
				{
					OFFSET 2.71068 -7.44755 0.00000
					CHANNELS 3 Zrotation Yrotation Xrotation
					JOINT LeftToe
					{
						OFFSET 0.17992 -0.49431 2.22524
						CHANNELS 3 Zrotation Yrotation Xrotation
						End Site
						{
							OFFSET 0.00000 -0.00000 1.14687
						}
					}
				}
			}
		}
	}
	JOINT RHipJoint
	{
		OFFSET 0 0 0
		CHANNELS 3 Zrotation Yrotation Xrotation
		JOINT RightHip
		{
			OFFSET -1.58469 -1.88989 0.48267
			CHANNELS 3 Zrotation Yrotation Xrotation
			JOINT RightKnee
			{
				OFFSET -2.60386 -7.15404 0.00000
				CHANNELS 3 Zrotation Yrotation Xrotation
				JOINT RightAnkle
				{
					OFFSET -2.73334 -7.50979 0.00000
					CHANNELS 3 Zrotation Yrotation Xrotation
					JOINT RightToe
					{
						OFFSET -0.25618 -0.70384 2.21822
						CHANNELS 3 Zrotation Yrotation Xrotation
						End Site
						{
							OFFSET -0.00000 -0.00000 1.16381
						}
					}
				}
			}
		}
	}
	JOINT lowerback
	{
		OFFSET 0 0 0
		CHANNELS 3 Zrotation Yrotation Xrotation
		JOINT Chest
		{
			OFFSET 0.03410 2.01612 -0.22230
			CHANNELS 3 Zrotation Yrotation Xrotation
			JOINT Chest2
			{
				OFFSET 0.03465 2.03012 0.00937
				CHANNELS 3 Zrotation Yrotation Xrotation
				JOINT lowerneck
				{
					OFFSET 0 0 0
					CHANNELS 3 Zrotation Yrotation Xrotation
					JOINT Neck
					{
						OFFSET -0.00219 1.70459 0.20857
						CHANNELS 3 Zrotation Yrotation Xrotation
						JOINT Head
						{
							OFFSET 0.02518 1.72339 -0.22179
							CHANNELS 3 Zrotation Yrotation Xrotation
							End Site
							{
								OFFSET 0.00282 1.74122 -0.09823
							}
						}
					}
				}
				JOINT LeftCollar
				{
					OFFSET 0 0 0
					CHANNELS 3 Zrotation Yrotation Xrotation
					JOINT LeftShoulder
					{
						OFFSET 3.36358 1.00547 -0.37661
CHANNELS 3 Zrotation Xrotation Yrotation
						JOINT LeftElbow
						{
OFFSET 0 -5.065070 0.000000
CHANNELS 3 Zrotation Xrotation Yrotation
							JOINT LeftWrist
							{
OFFSET 0 -3.601960 0.000000
CHANNELS 3 Zrotation Xrotation Yrotation
								JOINT lhand
								{
									OFFSET 0 0 0
CHANNELS 3 Zrotation Xrotation Yrotation
									JOINT LFingers
									{
OFFSET 0 -0.450350 0.000000
CHANNELS 3 Zrotation Xrotation Yrotation
										End Site
										{
OFFSET 0 -0.363080 0.000000
										}
									}
								}
								JOINT LThumb
								{
OFFSET 0 0.000000 0.000000
CHANNELS 3 Zrotation Xrotation Yrotation
									End Site
									{
OFFSET 0 -0.368620 0.368620
									}
								}
							}
						}
					}
				}
				JOINT RightCollar
				{
					OFFSET 0 0 0
					CHANNELS 3 Zrotation Yrotation Xrotation
					JOINT RightShoulder
					{
						OFFSET -3.50159 0.80383 -0.71526
CHANNELS 3 Zrotation Xrotation Yrotation
						JOINT RightElbow
						{
OFFSET 0 -5.363940 0.000000
CHANNELS 3 Zrotation Xrotation Yrotation
							JOINT RightWrist
							{
OFFSET 0 -3.580350 0.000000
CHANNELS 3 Zrotation Xrotation Yrotation
								JOINT rhand
								{
									OFFSET 0 0 0
CHANNELS 3 Zrotation Xrotation Yrotation
									JOINT RFingers
									{
OFFSET 0 -0.663750 0.000000
CHANNELS 3 Zrotation Xrotation Yrotation
										End Site
										{
OFFSET 0 -0.535130 0.000000
										}
									}
								}
								JOINT RThumb
								{
OFFSET 0 0.000000 0.000000
CHANNELS 3 Zrotation Xrotation Yrotation
									End Site
									{
OFFSET 0 -0.543300 0.543300
									}
								}
							}
						}
					}
				}
			}
		}
	}
}
MOTION
Frames: 4
Frame Time: 0.008333333333333333
0.689878 17.191065 9.576118 -5.393552 0.303907 2.704415 0.000000 0.000000 0.000000 -7.635727 -2.836493 -41.628515 22.812911 19.805845 98.250803 -0.491348 -12.346992 3.607660 0.056957 -1.493424 -4.108505 0.000000 0.000000 0.000000 36.075845 7.746974 2.447140 -5.052166 -13.441073 41.045131 -1.366562 -7.539445 -25.948056 -0.788087 5.666367 -15.819680 5.999421 1.338318 15.440341 1.827776 3.104163 -1.508669 -2.142678 1.202104 -10.137416 -1.447894 -5.958430 -20.998292 3.825944 -8.196576 10.390580 0.509895 -3.650647 6.785211 0.000000 0.000000 0.000000 9.339408 29.672563 -49.922501 127.519933 -53.947930 91.832712 29.931781 -28.343714 2.557400 0.000000 0.000000 0.000000 -7.125000 0.000000 0.000000 2.555427 27.027286 1.116104 0.000000 0.000000 0.000000 0.606887 -0.093460 40.523298 -141.171515 -47.359413 -102.427255 -2.925898 -30.835206 -40.779352 0.000000 0.000000 0.000000 7.125000 0.000000 0.000000 16.579387 -9.360620 19.838199
0.699433 17.217595 9.718954 -5.382655 0.331122 2.726044 0.000000 0.000000 0.000000 -7.783382 -2.971280 -41.917144 22.516534 19.840534 97.378208 -0.471443 -12.143977 3.108979 0.083870 -1.789473 -4.926315 0.000000 0.000000 0.000000 36.019335 7.508722 2.990421 -4.959899 -13.336020 40.644194 -1.274487 -7.347135 -25.095968 -0.809662 5.740701 -16.034441 6.080463 1.396553 15.414824 1.789527 3.195088 -1.577007 -2.250633 1.236711 -10.185247 -1.470481 -6.029889 -20.949475 3.832433 -8.289527 10.420341 0.504884 -3.695740 6.790632 0.000000 0.000000 0.000000 9.355425 30.098689 -49.833903 127.637800 -53.904589 91.927936 29.856544 -28.264343 2.590200 0.000000 0.000000 0.000000 -7.125000 0.000000 0.000000 2.496480 26.991857 1.092312 0.000000 0.000000 0.000000 0.616661 -0.248781 40.339695 -141.392546 -47.221040 -102.589366 -2.271294 -30.824419 -41.127257 0.000000 0.000000 0.000000 7.125000 0.000000 0.000000 16.921761 -9.624061 20.350596
0.708988 17.244126 9.861790 -5.371758 0.358337 2.747673 0.000000 0.000000 0.000000 -7.931037 -3.106067 -42.205773 22.220157 19.875223 96.505613 -0.451539 -11.940962 2.610299 0.110784 -2.085522 -5.744124 0.000000 0.000000 0.000000 35.962825 7.270471 3.533702 -4.867632 -13.230967 40.243256 -1.182411 -7.154825 -24.243880 -0.831237 5.815035 -16.249202 6.161504 1.454788 15.389307 1.751279 3.286014 -1.645345 -2.358588 1.271318 -10.233078 -1.493069 -6.101348 -20.900658 3.838922 -8.382479 10.450102 0.499874 -3.740833 6.796053 0.000000 0.000000 0.000000 9.371442 30.524816 -49.745304 127.755666 -53.861248 92.023160 29.781307 -28.184971 2.623000 0.000000 0.000000 0.000000 -7.125000 0.000000 0.000000 2.437533 26.956429 1.068519 0.000000 0.000000 0.000000 0.626436 -0.404102 40.156092 -141.613576 -47.082667 -102.751477 -1.616691 -30.813632 -41.475161 0.000000 0.000000 0.000000 7.125000 0.000000 0.000000 17.264135 -9.887501 20.862993
0.718543 17.270656 10.004626 -5.360861 0.385551 2.769303 0.000000 0.000000 0.000000 -8.078692 -3.240853 -42.494402 21.923779 19.909912 95.633018 -0.431634 -11.737947 2.111618 0.137697 -2.381571 -6.561934 0.000000 0.000000 0.000000 35.906314 7.032219 4.076983 -4.775365 -13.125914 39.842319 -1.090336 -6.962516 -23.391791 -0.852811 5.889369 -16.463962 6.242546 1.513023 15.363790 1.713031 3.376939 -1.713683 -2.466543 1.305925 -10.280909 -1.515657 -6.172807 -20.851842 3.845411 -8.475431 10.479863 0.494864 -3.785926 6.801474 0.000000 0.000000 0.000000 9.387458 30.950942 -49.656706 127.873533 -53.817907 92.118384 29.706069 -28.105599 2.655800 0.000000 0.000000 0.000000 -7.125000 0.000000 0.000000 2.378586 26.921001 1.044727 0.000000 0.000000 0.000000 0.636210 -0.559423 39.972488 -141.834606 -46.944293 -102.913588 -0.962087 -30.802844 -41.823066 0.000000 0.000000 0.000000 7.125000 0.000000 0.000000 17.606509 -10.150941 21.375391
